<svg width="128" height="128" viewBox="0 0 128 128" fill="none" xmlns="http://www.w3.org/2000/svg" role="img" aria-labelledby="yieldflow-logo-title">
  <title id="yieldflow-logo-title">YieldFlow logo</title>
  <defs>
    <linearGradient id="mark-fill" x1="24" y1="18" x2="106" y2="112" gradientUnits="userSpaceOnUse">
      <stop stop-color="#20C997"/>
      <stop offset="0.52" stop-color="#168C7A"/>
      <stop offset="1" stop-color="#1E4B7A"/>
    </linearGradient>
    <linearGradient id="gold-flow" x1="25" y1="73" x2="100" y2="35" gradientUnits="userSpaceOnUse">
      <stop stop-color="#F6C85F"/>
      <stop offset="1" stop-color="#F28C28"/>
    </linearGradient>
    <filter id="soft-shadow" x="10" y="12" width="108" height="108" color-interpolation-filters="sRGB" filterUnits="userSpaceOnUse">
      <feDropShadow dx="0" dy="8" flood-color="#0A2540" flood-opacity="0.18" stdDeviation="7"/>
    </filter>
  </defs>

  <rect x="16" y="16" width="96" height="96" rx="28" fill="#F7FBFA"/>
  <path d="M33 92C47 104 70 108 89 96C101 88 107 75 106 62" stroke="#D8E7E3" stroke-width="8" stroke-linecap="round"/>
  <path d="M27 70C38 51 56 44 73 49C84 52 91 59 97 69" stroke="#D8E7E3" stroke-width="8" stroke-linecap="round"/>

  <g filter="url(#soft-shadow)">
    <path d="M32 39C44 40 55 48 62 60L66 67L75 51C81 40 92 33 105 32" stroke="url(#mark-fill)" stroke-width="12" stroke-linecap="round" stroke-linejoin="round"/>
    <path d="M66 67V97" stroke="url(#mark-fill)" stroke-width="12" stroke-linecap="round"/>
    <path d="M30 80C45 72 56 70 68 75C80 80 91 76 102 62" stroke="url(#gold-flow)" stroke-width="8" stroke-linecap="round" stroke-linejoin="round"/>
  </g>

  <circle cx="30" cy="80" r="5" fill="#F6C85F"/>
  <circle cx="102" cy="62" r="5" fill="#F28C28"/>
  <rect x="38" y="90" width="10" height="10" rx="3" fill="#1E4B7A"/>
  <rect x="52" y="84" width="10" height="16" rx="3" fill="#168C7A"/>
  <rect x="80" y="78" width="10" height="22" rx="3" fill="#20C997"/>
</svg>
